name Walk6.mot
datacolumns 19
datarows 25
range 2.09100000 2.11500000
endheader

                time	   L_ground_force_vx	   L_ground_force_vy	   L_ground_force_vz	   L_ground_force_px	   L_ground_force_py	   L_ground_force_pz	   R_ground_force_vx	   R_ground_force_vy	   R_ground_force_vz	   R_ground_force_px	   R_ground_force_py	   R_ground_force_pz	   L_ground_torque_x	   L_ground_torque_y	   L_ground_torque_z	   R_ground_torque_x	   R_ground_torque_y	   R_ground_torque_z	
          2.09100000	          0.00000000	          0.00000000	          0.00000000	          0.00000000	          0.00000000	          0.00000000	          0.00000000	          0.00000000	          0.00000000	          0.00000000	          0.00000000	          0.00000000	          0.00000000	          0.00000000	          0.00000000	          0.00000000	          0.00000000	          0.00000000	
          2.09200000	          0.00000000	          0.00000000	          0.00000000	          0.00000000	          0.00000000	          0.00000000	          0.00000000	          0.00000000	          0.00000000	          0.00000000	          0.00000000	          0.00000000	          0.00000000	          0.00000000	          0.00000000	          0.00000000	          0.00000000	          0.00000000	
          2.09300000	          0.00000000	          0.00000000	          0.00000000	          0.00000000	          0.00000000	          0.00000000	          0.00000000	          0.00000000	          0.00000000	          0.00000000	          0.00000000	          0.00000000	          0.00000000	          0.00000000	          0.00000000	          0.00000000	          0.00000000	          0.00000000	
          2.09400000	          0.00000000	          0.00000000	          0.00000000	          0.00000000	          0.00000000	          0.00000000	          0.00000000	          0.00000000	          0.00000000	          0.00000000	          0.00000000	          0.00000000	          0.00000000	          0.00000000	          0.00000000	          0.00000000	          0.00000000	          0.00000000	
          2.09500000	          0.00000000	          0.00000000	          0.00000000	          0.00000000	          0.00000000	          0.00000000	          0.00000000	          0.00000000	          0.00000000	          0.00000000	          0.00000000	          0.00000000	          0.00000000	          0.00000000	          0.00000000	          0.00000000	          0.00000000	          0.00000000	
          2.09600000	          0.00000000	          0.00000000	          0.00000000	          0.00000000	          0.00000000	          0.00000000	          0.00000000	          0.00000000	          0.00000000	          0.00000000	          0.00000000	          0.00000000	          0.00000000	          0.00000000	          0.00000000	          0.00000000	          0.00000000	          0.00000000	
          2.09700000	          0.00000000	          0.00000000	          0.00000000	          0.00000000	          0.00000000	          0.00000000	          0.00000000	          0.00000000	          0.00000000	          0.00000000	          0.00000000	          0.00000000	          0.00000000	          0.00000000	          0.00000000	          0.00000000	          0.00000000	          0.00000000	
          2.09800000	          0.00000000	          0.00000000	          0.00000000	          0.00000000	          0.00000000	          0.00000000	          0.00000000	          0.00000000	          0.00000000	          0.00000000	          0.00000000	          0.00000000	          0.00000000	          0.00000000	          0.00000000	          0.00000000	          0.00000000	          0.00000000	
          2.09900000	        -13.13744825	         17.88644140	         -4.73134040	         -0.27356390	          0.00000000	         -0.05835281	          0.00000000	          0.00000000	          0.00000000	          0.00000000	          0.00000000	          0.00000000	          0.00000000	         -0.02351246	          0.00000000	          0.00000000	          0.00000000	          0.00000000	
          2.10000000	        -18.77832755	         26.69724290	         -6.32988933	         -0.27483352	          0.00000000	         -0.05944797	          0.00000000	          0.00000000	          0.00000000	          0.00000000	          0.00000000	          0.00000000	          0.00000000	         -0.02608128	          0.00000000	          0.00000000	          0.00000000	          0.00000000	
          2.10100000	        -25.08691397	         38.13654416	         -7.80046322	         -0.27562142	          0.00000000	         -0.06079223	          0.00000000	          0.00000000	          0.00000000	          0.00000000	          0.00000000	          0.00000000	          0.00000000	         -0.03686702	          0.00000000	          0.00000000	          0.00000000	          0.00000000	
          2.10200000	        -31.96376031	         53.36441346	         -9.01426261	         -0.27586096	          0.00000000	         -0.06210493	          0.00000000	          0.00000000	          0.00000000	          0.00000000	          0.00000000	          0.00000000	          0.00000000	         -0.05443936	          0.00000000	          0.00000000	          0.00000000	          0.00000000	
          2.10300000	        -39.16022048	         73.61814507	         -9.84949816	         -0.27574943	          0.00000000	         -0.06314074	          0.00000000	          0.00000000	          0.00000000	          0.00000000	          0.00000000	          0.00000000	          0.00000000	         -0.06705828	          0.00000000	          0.00000000	          0.00000000	          0.00000000	
          2.10400000	        -46.22274232	         99.90380940	        -10.19975972	         -0.27551045	          0.00000000	         -0.06375599	          0.00000000	          0.00000000	          0.00000000	          0.00000000	          0.00000000	          0.00000000	          0.00000000	         -0.05772905	          0.00000000	          0.00000000	          0.00000000	          0.00000000	
          2.10500000	        -52.52126640	        132.69241100	         -9.99352376	         -0.27530397	          0.00000000	         -0.06403941	          0.00000000	          0.00000000	          0.00000000	          0.00000000	          0.00000000	          0.00000000	          0.00000000	         -0.01787308	          0.00000000	          0.00000000	          0.00000000	          0.00000000	
          2.10600000	        -57.37665423	        171.68265190	         -9.24184580	         -0.27521593	          0.00000000	         -0.06415735	          0.00000000	          0.00000000	          0.00000000	          0.00000000	          0.00000000	          0.00000000	          0.00000000	          0.05120260	          0.00000000	          0.00000000	          0.00000000	          0.00000000	
          2.10700000	        -60.24966277	        215.70845893	         -8.09483846	         -0.27522083	          0.00000000	         -0.06418873	          0.00000000	          0.00000000	          0.00000000	          0.00000000	          0.00000000	          0.00000000	          0.00000000	          0.14299863	          0.00000000	          0.00000000	          0.00000000	          0.00000000	
          2.10800000	        -60.89419467	        262.82642332	         -6.86322653	         -0.27523449	          0.00000000	         -0.06413207	          0.00000000	          0.00000000	          0.00000000	          0.00000000	          0.00000000	          0.00000000	          0.00000000	          0.24700078	          0.00000000	          0.00000000	          0.00000000	          0.00000000	
          2.10900000	        -59.41179389	        310.56671404	         -5.98602270	         -0.27520939	          0.00000000	         -0.06396407	          0.00000000	          0.00000000	          0.00000000	          0.00000000	          0.00000000	          0.00000000	          0.00000000	          0.35163011	          0.00000000	          0.00000000	          0.00000000	          0.00000000	
          2.11000000	        -56.20654250	        356.30991137	         -5.95068074	         -0.27514623	          0.00000000	         -0.06367745	          0.00000000	          0.00000000	          0.00000000	          0.00000000	          0.00000000	          0.00000000	          0.00000000	          0.44825838	          0.00000000	          0.00000000	          0.00000000	          0.00000000	
          2.11100000	        -51.86994888	        397.72762592	         -7.18549320	         -0.27504760	          0.00000000	         -0.06328269	          0.00000000	          0.00000000	          0.00000000	          0.00000000	          0.00000000	          0.00000000	          0.00000000	          0.53229239	          0.00000000	          0.00000000	          0.00000000	          0.00000000	
          2.11200000	        -47.04623739	        433.16012211	         -9.95315430	         -0.27489672	          0.00000000	         -0.06281373	          0.00000000	          0.00000000	          0.00000000	          0.00000000	          0.00000000	          0.00000000	          0.00000000	          0.59905779	          0.00000000	          0.00000000	          0.00000000	          0.00000000	
          2.11300000	        -42.31888317	        461.81416675	        -14.27711523	         -0.27468033	          0.00000000	         -0.06234137	          0.00000000	          0.00000000	          0.00000000	          0.00000000	          0.00000000	          0.00000000	          0.00000000	          0.64079184	          0.00000000	          0.00000000	          0.00000000	          0.00000000	
          2.11400000	        -38.13673198	        483.78186065	        -19.92772534	         -0.27440490	          0.00000000	         -0.06193505	          0.00000000	          0.00000000	          0.00000000	          0.00000000	          0.00000000	          0.00000000	          0.00000000	          0.65199255	          0.00000000	          0.00000000	          0.00000000	          0.00000000	
          2.11500000	        -34.79166707	        499.91934235	        -26.47466392	         -0.27407873	          0.00000000	         -0.06160855	          0.00000000	          0.00000000	          0.00000000	          0.00000000	          0.00000000	          0.00000000	          0.00000000	          0.63670278	          0.00000000	          0.00000000	          0.00000000	          0.00000000	
